<?xml version="1.0" ?><svg id="Layer_1" style="enable-background:new 0 0 30 30;" version="1.1" viewBox="0 0 30 30" xml:space="preserve" xmlns="http://www.w3.org/2000/svg" xmlns:xlink="http://www.w3.org/1999/xlink"><path d="M3,10V8c0-1.105,0.895-2,2-2h20c1.105,0,2,0.895,2,2v2H3z"/><g><path d="M14,12H4v13c0,1.105,0.895,2,2,2h8V12z"/><path d="M16,12v15h8c1.105,0,2-0.895,2-2V12H16z"/></g><path d="M15,5  c0,0.552,0,2,0,2s1.448,0,2,0c1.105,0,2-0.895,2-2s-0.895-2-2-2S15,3.895,15,5z" style="fill:none;stroke:#000000;stroke-width:2;stroke-linecap:round;stroke-linejoin:round;stroke-miterlimit:10;"/><path d="M15,5  c0,0.552,0,2,0,2s-1.448,0-2,0c-1.105,0-2-0.895-2-2s0.895-2,2-2S15,3.895,15,5z" style="fill:none;stroke:#000000;stroke-width:2;stroke-linecap:round;stroke-linejoin:round;stroke-miterlimit:10;"/></svg>