<?xml version="1.0" ?><svg id="Layer_1" style="enable-background:new 0 0 30 30;" version="1.1" viewBox="0 0 30 30" xml:space="preserve" xmlns="http://www.w3.org/2000/svg" xmlns:xlink="http://www.w3.org/1999/xlink"><path d="M22.143,23.365  C20.221,25.008,17.726,26,15,26C8.925,26,4,21.075,4,15S8.925,4,15,4s11,4.925,11,11c0,0.352-0.017,0.7-0.049,1.043" style="fill:none;stroke:#000000;stroke-width:2;stroke-linecap:round;stroke-miterlimit:10;"/><polygon points="26,20 22,14 30,14 "/><path d="M19,21h-8c-0.552,0-1-0.448-1-1v-5c0-0.552,0.448-1,1-1h8c0.552,0,1,0.448,1,1v5C20,20.552,19.552,21,19,21z"/><path d="M17.816,11  C17.403,9.837,16.304,9,15,9c-1.657,0-3,1.343-3,3v3" style="fill:none;stroke:#000000;stroke-width:2;stroke-linecap:round;stroke-miterlimit:10;"/></svg>