<svg version="1.1" xmlns="http://www.w3.org/2000/svg" xmlns:xlink="http://www.w3.org/1999/xlink" width="24px" height="24px" viewBox="0,0,256,256"><g fill="#ffffff" fill-rule="nonzero" stroke="none" stroke-width="1" stroke-linecap="butt" stroke-linejoin="miter" stroke-miterlimit="10" stroke-dasharray="" stroke-dashoffset="0" font-family="none" font-weight="none" font-size="none" text-anchor="none" style="mix-blend-mode: normal"><g transform="translate(-0.12432,0) scale(10.66667,10.66667)"><g id="surface1"><path d="M15.89844,15.05469c0.56641,-0.30469 1.21484,-0.47656 1.90625,-0.47656h0.00391c0.07031,0 0.10156,-0.08594 0.05078,-0.13281c-0.72266,-0.64453 -1.53906,-1.16406 -2.42969,-1.53906c-0.01172,-0.00781 -0.01953,-0.00781 -0.02734,-0.01172c1.45313,-1.05859 2.40234,-2.77734 2.40234,-4.71484c0,-3.21094 -2.59766,-5.8125 -5.80078,-5.8125c-3.20703,0 -5.80078,2.60156 -5.80078,5.8125c0,1.9375 0.94922,3.65625 2.40625,4.71484c-0.01172,0.00391 -0.01953,0.00391 -0.02734,0.01172c-1.05078,0.44141 -1.98828,1.07813 -2.79688,1.88672c-0.80859,0.80859 -1.44141,1.75 -1.88672,2.80078c-0.43359,1.02734 -0.66406,2.11719 -0.6875,3.23828c-0.00391,0.10547 0.08203,0.19141 0.1875,0.19141h1.40234c0.10156,0 0.1875,-0.08203 0.1875,-0.18359c0.04688,-1.80859 0.77344,-3.50391 2.05469,-4.78906c1.32422,-1.32812 3.08594,-2.05859 4.96094,-2.05859c1.32813,0 2.60547,0.36719 3.70313,1.05859c0.05859,0.03516 0.12891,0.03906 0.19141,0.00391zM12.00391,12.21094c-1.07422,0 -2.08203,-0.41797 -2.84375,-1.17969c-0.76172,-0.76172 -1.17969,-1.77734 -1.17969,-2.85156c0,-1.07422 0.41797,-2.08984 1.17969,-2.85156c0.75781,-0.76172 1.76953,-1.17969 2.84375,-1.17969c1.07813,0 2.08594,0.41797 2.84766,1.17969c0.75781,0.76172 1.17578,1.77734 1.17578,2.85156c0,1.07422 -0.41797,2.08984 -1.17578,2.85156c-0.76172,0.76172 -1.77344,1.17969 -2.84766,1.17969zM20.625,17.78906h-1.96875v-1.96875c0,-0.10156 -0.08594,-0.1875 -0.1875,-0.1875h-1.3125c-0.10156,0 -0.1875,0.08594 -0.1875,0.1875v1.96875h-1.96875c-0.10156,0 -0.1875,0.08594 -0.1875,0.1875v1.3125c0,0.10156 0.08594,0.1875 0.1875,0.1875h1.96875v1.96875c0,0.10156 0.08594,0.1875 0.1875,0.1875h1.3125c0.10156,0 0.1875,-0.08594 0.1875,-0.1875v-1.96875h1.96875c0.10156,0 0.1875,-0.08594 0.1875,-0.1875v-1.3125c0,-0.10156 -0.08594,-0.1875 -0.1875,-0.1875zM20.625,17.78906"></path></g></g></g></svg>