<?xml version="1.0" encoding="UTF-8"?>
<svg xmlns="http://www.w3.org/2000/svg" xmlns:xlink="http://www.w3.org/1999/xlink" width="24px" height="24px" viewBox="0 0 24 24" version="1.1">
<g id="surface1">
<path style=" stroke:none;fill-rule:nonzero;fill:rgb(0%,0%,0%);fill-opacity:1;" d="M 15.898438 15.054688 C 16.464844 14.75 17.113281 14.578125 17.804688 14.578125 L 17.808594 14.578125 C 17.878906 14.578125 17.910156 14.492188 17.859375 14.445312 C 17.136719 13.800781 16.320312 13.28125 15.429688 12.90625 C 15.417969 12.898438 15.410156 12.898438 15.402344 12.894531 C 16.855469 11.835938 17.804688 10.117188 17.804688 8.179688 C 17.804688 4.96875 15.207031 2.367188 12.003906 2.367188 C 8.796875 2.367188 6.203125 4.96875 6.203125 8.179688 C 6.203125 10.117188 7.152344 11.835938 8.609375 12.894531 C 8.597656 12.898438 8.589844 12.898438 8.582031 12.90625 C 7.53125 13.347656 6.59375 13.984375 5.785156 14.792969 C 4.976562 15.601562 4.34375 16.542969 3.898438 17.59375 C 3.464844 18.621094 3.234375 19.710938 3.210938 20.832031 C 3.207031 20.9375 3.292969 21.023438 3.398438 21.023438 L 4.800781 21.023438 C 4.902344 21.023438 4.988281 20.941406 4.988281 20.839844 C 5.035156 19.03125 5.761719 17.335938 7.042969 16.050781 C 8.367188 14.722656 10.128906 13.992188 12.003906 13.992188 C 13.332031 13.992188 14.609375 14.359375 15.707031 15.050781 C 15.765625 15.085938 15.835938 15.089844 15.898438 15.054688 Z M 12.003906 12.210938 C 10.929688 12.210938 9.921875 11.792969 9.160156 11.03125 C 8.398438 10.269531 7.980469 9.253906 7.980469 8.179688 C 7.980469 7.105469 8.398438 6.089844 9.160156 5.328125 C 9.917969 4.566406 10.929688 4.148438 12.003906 4.148438 C 13.082031 4.148438 14.089844 4.566406 14.851562 5.328125 C 15.609375 6.089844 16.027344 7.105469 16.027344 8.179688 C 16.027344 9.253906 15.609375 10.269531 14.851562 11.03125 C 14.089844 11.792969 13.078125 12.210938 12.003906 12.210938 Z M 20.625 17.789062 L 18.65625 17.789062 L 18.65625 15.820312 C 18.65625 15.71875 18.570312 15.632812 18.46875 15.632812 L 17.15625 15.632812 C 17.054688 15.632812 16.96875 15.71875 16.96875 15.820312 L 16.96875 17.789062 L 15 17.789062 C 14.898438 17.789062 14.8125 17.875 14.8125 17.976562 L 14.8125 19.289062 C 14.8125 19.390625 14.898438 19.476562 15 19.476562 L 16.96875 19.476562 L 16.96875 21.445312 C 16.96875 21.546875 17.054688 21.632812 17.15625 21.632812 L 18.46875 21.632812 C 18.570312 21.632812 18.65625 21.546875 18.65625 21.445312 L 18.65625 19.476562 L 20.625 19.476562 C 20.726562 19.476562 20.8125 19.390625 20.8125 19.289062 L 20.8125 17.976562 C 20.8125 17.875 20.726562 17.789062 20.625 17.789062 Z M 20.625 17.789062 "/>
</g>
</svg>
