<?xml version="1.0" encoding="UTF-8"?>
<svg xmlns="http://www.w3.org/2000/svg" xmlns:xlink="http://www.w3.org/1999/xlink" width="24px" height="24px" viewBox="0 0 24 24" version="1.1">
<g id="surface1">
<path style=" stroke:none;fill-rule:nonzero;fill:rgb(0%,0%,0%);fill-opacity:1;" d="M 12 7.5 C 12.828125 7.5 13.5 6.828125 13.5 6 C 13.5 5.171875 12.828125 4.5 12 4.5 C 11.171875 4.5 10.5 5.171875 10.5 6 C 10.5 6.828125 11.171875 7.5 12 7.5 Z M 21 11.636719 L 21 6.335938 L 12 0.609375 L 3 6.339844 L 3 24 L 21 24 L 21 22.863281 C 22.808594 21.652344 24 19.589844 24 17.25 C 24 14.910156 22.808594 12.847656 21 11.636719 Z M 4.5 22.5 L 4.5 7.160156 L 12 2.386719 L 19.5 7.160156 L 19.5 10.890625 C 18.796875 10.640625 18.039062 10.5 17.25 10.5 C 13.519531 10.5 10.5 13.519531 10.5 17.25 C 10.5 19.371094 11.480469 21.261719 13.011719 22.5 Z M 17.25 22.5 C 14.351562 22.492188 12.003906 20.148438 12 17.25 C 12.003906 14.351562 14.351562 12.003906 17.25 12 C 20.148438 12.003906 22.492188 14.351562 22.5 17.25 C 22.492188 20.148438 20.148438 22.492188 17.25 22.5 Z M 17.25 22.5 "/>
<path style=" stroke:none;fill-rule:nonzero;fill:rgb(0%,0%,0%);fill-opacity:1;" d="M 21 16.5 L 18 16.5 L 18 13.5 L 16.5 13.5 L 16.5 16.5 L 13.5 16.5 L 13.5 18 L 16.5 18 L 16.5 21 L 18 21 L 18 18 L 21 18 Z M 21 16.5 "/>
</g>
</svg>
