<?xml version="1.0" encoding="UTF-8"?>
<svg xmlns="http://www.w3.org/2000/svg" xmlns:xlink="http://www.w3.org/1999/xlink" width="24px" height="24px" viewBox="0 0 24 24" version="1.1">
<g id="surface1">
<path style=" stroke:none;fill-rule:nonzero;fill:rgb(0%,0%,0%);fill-opacity:1;" d="M 16.074219 8.980469 L 22.527344 2.570312 L 22.507812 6.203125 C 22.5 6.507812 22.738281 6.769531 23.042969 6.761719 L 23.429688 6.761719 C 23.730469 6.757812 23.980469 6.574219 23.988281 6.273438 L 24.003906 0.859375 C 24.003906 0.851562 23.984375 0.847656 23.984375 0.84375 L 24.011719 0.570312 C 24.015625 0.417969 23.980469 0.28125 23.882812 0.183594 C 23.785156 0.0859375 23.648438 0.0273438 23.5 0.03125 L 23.222656 0.0351562 C 23.21875 0.0351562 23.214844 0.0390625 23.210938 0.0390625 L 17.832031 0.015625 C 17.527344 0.0234375 17.277344 0.273438 17.269531 0.578125 L 17.269531 0.960938 C 17.316406 1.320312 17.597656 1.527344 17.898438 1.519531 L 21.445312 1.53125 L 15.015625 7.921875 C 14.722656 8.210938 14.722656 8.6875 15.015625 8.980469 C 15.308594 9.273438 15.78125 9.273438 16.074219 8.980469 Z M 7.949219 15.019531 L 1.496094 21.410156 L 1.515625 17.796875 C 1.523438 17.492188 1.28125 17.230469 0.980469 17.234375 L 0.570312 17.238281 C 0.269531 17.246094 0.015625 17.425781 0.0117188 17.726562 L -0.00390625 23.140625 C -0.00390625 23.148438 0.015625 23.152344 0.015625 23.15625 L -0.015625 23.429688 C -0.015625 23.582031 0.0195312 23.71875 0.117188 23.816406 C 0.214844 23.914062 0.351562 23.972656 0.5 23.96875 L 0.777344 23.960938 C 0.78125 23.960938 0.785156 23.960938 0.789062 23.960938 L 6.191406 23.984375 C 6.496094 23.976562 6.746094 23.726562 6.753906 23.421875 L 6.753906 23.039062 C 6.707031 22.679688 6.425781 22.472656 6.125 22.476562 L 2.578125 22.46875 L 9.007812 16.078125 C 9.300781 15.785156 9.300781 15.3125 9.007812 15.019531 C 8.714844 14.726562 8.238281 14.726562 7.949219 15.019531 Z M 24.003906 23.140625 L 23.988281 17.726562 C 23.984375 17.425781 23.730469 17.242188 23.429688 17.238281 L 23.042969 17.234375 C 22.742188 17.230469 22.5 17.492188 22.507812 17.796875 L 22.527344 21.429688 L 16.074219 15.019531 C 15.78125 14.726562 15.308594 14.726562 15.015625 15.019531 C 14.722656 15.3125 14.722656 15.785156 15.015625 16.078125 L 21.445312 22.46875 L 17.898438 22.476562 C 17.597656 22.472656 17.316406 22.679688 17.269531 23.039062 L 17.269531 23.421875 C 17.277344 23.726562 17.527344 23.976562 17.832031 23.984375 L 23.210938 23.960938 C 23.214844 23.960938 23.21875 23.960938 23.222656 23.960938 L 23.5 23.96875 C 23.648438 23.972656 23.785156 23.914062 23.882812 23.816406 C 23.980469 23.71875 24.015625 23.582031 24.015625 23.429688 L 23.984375 23.15625 C 23.984375 23.148438 24.003906 23.148438 24.003906 23.140625 Z M 2.578125 1.53125 L 6.125 1.523438 C 6.425781 1.527344 6.707031 1.320312 6.753906 0.960938 L 6.753906 0.578125 C 6.746094 0.273438 6.496094 0.0234375 6.191406 0.015625 L 0.789062 0.0390625 C 0.785156 0.0390625 0.78125 0.0351562 0.777344 0.0351562 L 0.5 0.03125 C 0.351562 0.0273438 0.214844 0.0859375 0.117188 0.183594 C 0.0195312 0.28125 -0.015625 0.417969 -0.015625 0.570312 L 0.015625 0.84375 C 0.015625 0.847656 -0.00390625 0.851562 -0.00390625 0.859375 L 0.0117188 6.273438 C 0.0195312 6.574219 0.269531 6.757812 0.570312 6.761719 L 0.980469 6.761719 C 1.28125 6.769531 1.523438 6.507812 1.515625 6.203125 L 1.496094 2.589844 L 7.949219 8.980469 C 8.238281 9.273438 8.714844 9.273438 9.007812 8.980469 C 9.300781 8.6875 9.300781 8.210938 9.007812 7.917969 Z M 2.578125 1.53125 "/>
</g>
</svg>
