<?xml version="1.0" encoding="UTF-8"?>
<svg xmlns="http://www.w3.org/2000/svg" xmlns:xlink="http://www.w3.org/1999/xlink" width="24px" height="24px" viewBox="0 0 24 24" version="1.1">
<g id="surface1">
<path style=" stroke:none;fill-rule:nonzero;fill:rgb(0%,0%,0%);fill-opacity:1;" d="M 8.980469 8.128906 L 8.964844 2.714844 C 8.957031 2.410156 8.707031 2.230469 8.40625 2.222656 L 8.019531 2.222656 C 7.714844 2.214844 7.476562 2.480469 7.484375 2.78125 L 7.503906 6.421875 L 1.261719 0.242188 C 0.96875 -0.0507812 0.496094 -0.0507812 0.203125 0.242188 C -0.0898438 0.53125 -0.0898438 1.007812 0.203125 1.300781 L 6.417969 7.457031 L 2.875 7.464844 C 2.574219 7.457031 2.292969 7.667969 2.246094 8.023438 L 2.246094 8.410156 C 2.253906 8.710938 2.503906 8.964844 2.808594 8.96875 L 8.1875 8.945312 C 8.191406 8.945312 8.195312 8.949219 8.199219 8.949219 L 8.476562 8.957031 C 8.625 8.960938 8.761719 8.902344 8.859375 8.800781 C 8.957031 8.707031 8.992188 8.570312 8.992188 8.417969 L 8.960938 8.144531 C 8.960938 8.136719 8.980469 8.132812 8.980469 8.128906 Z M 15.140625 8.800781 C 15.238281 8.898438 15.375 8.960938 15.523438 8.957031 L 15.796875 8.949219 C 15.804688 8.949219 15.808594 8.949219 15.8125 8.945312 L 21.191406 8.96875 C 21.496094 8.964844 21.746094 8.710938 21.753906 8.410156 L 21.753906 8.023438 C 21.707031 7.667969 21.425781 7.457031 21.125 7.464844 L 17.582031 7.457031 L 23.796875 1.300781 C 24.089844 1.007812 24.089844 0.535156 23.796875 0.242188 C 23.503906 -0.0507812 23.027344 -0.0507812 22.734375 0.242188 L 16.496094 6.421875 L 16.515625 2.78125 C 16.523438 2.480469 16.285156 2.214844 15.980469 2.222656 L 15.59375 2.222656 C 15.292969 2.230469 15.039062 2.410156 15.035156 2.714844 L 15.019531 8.128906 C 15.019531 8.132812 15.039062 8.136719 15.039062 8.144531 L 15.007812 8.417969 C 15.007812 8.570312 15.042969 8.707031 15.140625 8.800781 Z M 8.859375 15.175781 C 8.761719 15.074219 8.625 15.015625 8.476562 15.019531 L 8.203125 15.027344 C 8.195312 15.027344 8.191406 15.03125 8.1875 15.03125 L 2.808594 15.007812 C 2.503906 15.011719 2.253906 15.265625 2.246094 15.566406 L 2.246094 15.953125 C 2.292969 16.308594 2.574219 16.519531 2.875 16.511719 L 6.421875 16.519531 L 0.203125 22.699219 C -0.0898438 22.992188 -0.0898438 23.464844 0.203125 23.757812 C 0.496094 24.050781 0.96875 24.050781 1.261719 23.757812 L 7.503906 17.558594 L 7.484375 21.214844 C 7.476562 21.519531 7.714844 21.785156 8.019531 21.777344 L 8.40625 21.777344 C 8.707031 21.769531 8.960938 21.589844 8.964844 21.285156 L 8.980469 15.871094 C 8.980469 15.867188 8.960938 15.863281 8.960938 15.855469 L 8.992188 15.558594 C 8.992188 15.40625 8.957031 15.273438 8.859375 15.175781 Z M 17.578125 16.519531 L 21.125 16.511719 C 21.425781 16.519531 21.707031 16.308594 21.753906 15.953125 L 21.753906 15.566406 C 21.746094 15.265625 21.496094 15.011719 21.191406 15.007812 L 15.8125 15.007812 C 15.808594 15.007812 15.804688 15.003906 15.800781 15.003906 L 15.476562 14.996094 C 15.328125 14.992188 15.191406 15.101562 15.09375 15.199219 C 14.996094 15.296875 14.960938 15.429688 14.960938 15.582031 L 14.992188 15.855469 C 14.992188 15.863281 14.972656 15.867188 14.972656 15.871094 L 14.988281 21.285156 C 14.996094 21.589844 15.246094 21.769531 15.546875 21.777344 L 15.957031 21.777344 C 16.261719 21.785156 16.5 21.519531 16.492188 21.214844 L 16.472656 17.59375 L 22.738281 23.757812 C 23.03125 24.050781 23.503906 24.050781 23.796875 23.757812 C 24.089844 23.464844 24.089844 22.992188 23.796875 22.699219 Z M 17.578125 16.519531 "/>
</g>
</svg>
