<?xml version="1.0" encoding="UTF-8"?>
<svg xmlns="http://www.w3.org/2000/svg" xmlns:xlink="http://www.w3.org/1999/xlink" width="24px" height="24px" viewBox="0 0 24 24" version="1.1">
<g id="surface1">
<path style="fill:none;stroke-width:1.5;stroke-linecap:round;stroke-linejoin:round;stroke:rgb(16.078431%,17.647059%,19.607843%);stroke-opacity:1;stroke-miterlimit:10;" d="M 5.398438 2.101562 L 18.601562 2.101562 C 19.699219 2.101562 20.601562 3 20.601562 4.101562 L 20.601562 6.300781 C 20.601562 7.101562 20.101562 8.101562 19.601562 8.601562 L 15.300781 12.398438 C 14.699219 12.898438 14.300781 13.898438 14.300781 14.699219 L 14.300781 19 C 14.300781 19.601562 13.898438 20.398438 13.398438 20.699219 L 12 21.601562 C 10.699219 22.398438 8.898438 21.5 8.898438 19.898438 L 8.898438 14.601562 C 8.898438 13.898438 8.5 13 8.101562 12.5 L 4.300781 8.5 C 3.800781 8 3.398438 7.101562 3.398438 6.5 L 3.398438 4.199219 C 3.398438 3 4.300781 2.101562 5.398438 2.101562 Z M 5.398438 2.101562 "/>
<path style="fill:none;stroke-width:1.5;stroke-linecap:round;stroke-linejoin:round;stroke:rgb(16.078431%,17.647059%,19.607843%);stroke-opacity:1;stroke-miterlimit:10;" d="M 10.929688 2.101562 L 6 10 "/>
</g>
</svg>
