<?xml version="1.0" standalone="no"?>
<!DOCTYPE svg PUBLIC "-//W3C//DTD SVG 1.0//EN" "http://www.w3.org/TR/2001/REC-SVG-20010904/DTD/svg10.dtd">
<svg xmlns="http://www.w3.org/2000/svg" xmlns:xlink="http://www.w3.org/1999/xlink" id="body_1" width="24" height="24">

<g transform="matrix(0.046875 0 0 0.046875 0 0)">
	<g>
        <path d="M459.576 99.307L52.423 99.307C 23.524 99.307 0 122.837 0 151.736L0 151.736L0 344.615C 0 382.151 30.537 412.693 68.068 412.693L68.068 412.693L443.93 412.693C 481.462 412.693 511.999 382.151 511.999 344.615L511.999 344.615L511.999 151.736C 512 122.837 488.475 99.307 459.576 99.307zM485.515 344.615C 485.515 367.54898 466.86002 386.20398 443.93103 386.20398L443.93103 386.20398L68.068 386.20398C 45.139 386.20398 26.484001 367.54898 26.484001 344.615L26.484001 344.615L26.484001 151.736C 26.484001 137.43 38.122 125.79799 52.422 125.79799L52.422 125.79799L459.576 125.79799C 473.87698 125.79799 485.51398 137.43098 485.51398 151.736L485.51398 151.736L485.51398 344.615z" stroke="none" fill="#000000" fill-rule="nonzero" />
        <path d="M189.792 233.929L233.93001 233.929L233.93001 278.07098L189.792 278.07098z" stroke="none" fill="#000000" fill-rule="nonzero" />
        <path d="M256.002 233.929L300.13602 233.929L300.13602 278.07098L256.002 278.07098z" stroke="none" fill="#000000" fill-rule="nonzero" />
        <path d="M322.207 233.929L366.345 233.929L366.345 278.07098L322.207 278.07098z" stroke="none" fill="#000000" fill-rule="nonzero" />
        <path d="M410.484 300.139L454.618 300.139L454.618 344.273L410.484 344.273z" stroke="none" fill="#000000" fill-rule="nonzero" />
        <path d="M189.792 167.729L233.93001 167.729L233.93001 211.863L189.792 211.863z" stroke="none" fill="#000000" fill-rule="nonzero" />
        <path d="M123.587 233.929L167.725 233.929L167.725 278.07098L123.587 278.07098z" stroke="none" fill="#000000" fill-rule="nonzero" />
        <path d="M123.587 167.729L167.725 167.729L167.725 211.863L123.587 211.863z" stroke="none" fill="#000000" fill-rule="nonzero" />
        <path d="M57.382 300.139L101.516 300.139L101.516 344.273L57.382 344.273z" stroke="none" fill="#000000" fill-rule="nonzero" />
        <path d="M57.382 233.929L101.516 233.929L101.516 278.07098L57.382 278.07098z" stroke="none" fill="#000000" fill-rule="nonzero" />
        <path d="M57.382 167.729L101.516 167.729L101.516 211.863L57.382 211.863z" stroke="none" fill="#000000" fill-rule="nonzero" />
        <path d="M256.002 167.729L300.13602 167.729L300.13602 211.863L256.002 211.863z" stroke="none" fill="#000000" fill-rule="nonzero" />
        <path d="M322.207 167.729L366.345 167.729L366.345 211.863L322.207 211.863z" stroke="none" fill="#000000" fill-rule="nonzero" />
        <path d="M123.587 300.139L388.41202 300.139L388.41202 344.273L123.587 344.273z" stroke="none" fill="#000000" fill-rule="nonzero" />
        <path d="M388.412 167.729L454.617 167.729L454.617 278.07202L388.412 278.07202z" stroke="none" fill="#000000" fill-rule="nonzero" />
	</g>
</g>
</svg>