<?xml version="1.0" encoding="UTF-8"?>
<svg xmlns="http://www.w3.org/2000/svg" xmlns:xlink="http://www.w3.org/1999/xlink" width="24px" height="24px" viewBox="0 0 24 24" version="1.1">
<g id="surface1">
<path style=" stroke:none;fill-rule:nonzero;fill:rgb(0%,0%,0%);fill-opacity:1;" d="M 22.800781 16.570312 L 19.449219 14.464844 L 22.800781 12.363281 C 22.921875 12.285156 23 12.148438 23 12 C 23 11.851562 22.921875 11.71875 22.800781 11.640625 L 19.449219 9.535156 L 22.796875 7.429688 C 22.921875 7.351562 23 7.214844 23 7.066406 C 23 6.921875 22.921875 6.785156 22.796875 6.707031 L 12.226562 0.0664062 C 12.089844 -0.0234375 11.910156 -0.0234375 11.773438 0.0664062 L 1.199219 6.707031 C 1.078125 6.785156 1 6.921875 1 7.066406 C 1 7.214844 1.078125 7.351562 1.199219 7.429688 L 4.550781 9.535156 L 1.203125 11.640625 C 1.078125 11.71875 1 11.851562 1 12 C 1 12.148438 1.078125 12.285156 1.203125 12.363281 L 4.550781 14.464844 L 1.203125 16.570312 C 1.078125 16.648438 1 16.785156 1 16.933594 C 1 17.078125 1.078125 17.214844 1.203125 17.292969 L 11.773438 23.933594 C 11.84375 23.976562 11.921875 24 12 24 C 12.078125 24 12.15625 23.976562 12.226562 23.933594 L 22.800781 17.292969 C 22.921875 17.214844 23 17.078125 23 16.933594 C 23 16.785156 22.921875 16.648438 22.800781 16.570312 Z M 2.230469 7.066406 L 12 0.929688 L 21.769531 7.066406 L 12 13.203125 Z M 2.230469 12 L 5.355469 10.039062 L 11.773438 14.070312 C 11.84375 14.113281 11.921875 14.132812 12 14.132812 C 12.078125 14.132812 12.15625 14.113281 12.226562 14.070312 L 18.644531 10.039062 L 21.769531 12 L 12 18.136719 Z M 12 23.070312 L 2.230469 16.933594 L 5.355469 14.96875 L 11.773438 19 C 11.84375 19.046875 11.921875 19.066406 12 19.066406 C 12.078125 19.066406 12.15625 19.046875 12.226562 19 L 18.644531 14.96875 L 21.769531 16.933594 Z M 12 23.070312 "/>
</g>
</svg>
