<?xml version="1.0" encoding="UTF-8"?>
<svg xmlns="http://www.w3.org/2000/svg" xmlns:xlink="http://www.w3.org/1999/xlink" width="24px" height="24px" viewBox="0 0 24 24" version="1.1">
<g id="surface1">
<path style=" stroke:none;fill-rule:nonzero;fill:rgb(7.843137%,6.666667%,14.117647%);fill-opacity:1;" d="M 6.199219 20.75 C 4.625 20.804688 3.304688 19.574219 3.25 18 L 3.25 6 C 3.304688 4.425781 4.625 3.195312 6.199219 3.25 L 15 3.25 C 15.414062 3.25 15.75 3.585938 15.75 4 C 15.75 4.414062 15.414062 4.75 15 4.75 L 6.199219 4.75 C 5.457031 4.699219 4.808594 5.257812 4.75 6 L 4.75 18 C 4.808594 18.742188 5.457031 19.300781 6.199219 19.25 L 15 19.25 C 15.414062 19.25 15.75 19.585938 15.75 20 C 15.75 20.414062 15.414062 20.75 15 20.75 Z M 15.46875 16.53125 C 15.175781 16.238281 15.175781 15.761719 15.46875 15.46875 L 18.1875 12.75 L 9 12.75 C 8.585938 12.75 8.25 12.414062 8.25 12 C 8.25 11.585938 8.585938 11.25 9 11.25 L 18.191406 11.25 L 15.46875 8.53125 C 15.273438 8.339844 15.195312 8.0625 15.265625 7.800781 C 15.332031 7.539062 15.539062 7.332031 15.800781 7.265625 C 16.0625 7.195312 16.339844 7.273438 16.53125 7.46875 L 20.53125 11.46875 C 20.671875 11.609375 20.75 11.800781 20.75 12 C 20.75 12.199219 20.671875 12.390625 20.53125 12.53125 L 16.53125 16.53125 C 16.238281 16.824219 15.761719 16.824219 15.46875 16.53125 Z M 15.46875 16.53125 "/>
</g>
</svg>
