<?xml version="1.0" encoding="UTF-8"?>
<svg xmlns="http://www.w3.org/2000/svg" xmlns:xlink="http://www.w3.org/1999/xlink" width="24px" height="24px" viewBox="0 0 24 24" version="1.1">
<g id="surface1">
<path style=" stroke:none;fill-rule:nonzero;fill:rgb(0%,0%,0%);fill-opacity:1;" d="M 17.738281 0 L 9.144531 0 L 8.710938 0.4375 L 2.671875 6.472656 L 2.234375 6.910156 L 2.234375 19.972656 C 2.234375 22.195312 4.042969 24 6.261719 24 L 17.738281 24 C 19.957031 24 21.765625 22.195312 21.765625 19.972656 L 21.765625 4.027344 C 21.765625 1.804688 19.957031 0 17.738281 0 Z M 20.273438 19.972656 C 20.273438 21.375 19.136719 22.507812 17.738281 22.507812 L 6.261719 22.507812 C 4.863281 22.507812 3.726562 21.375 3.726562 19.972656 L 3.726562 7.527344 L 7.652344 7.527344 C 8.816406 7.527344 9.765625 6.582031 9.765625 5.414062 L 9.765625 1.492188 L 17.738281 1.492188 C 19.136719 1.492188 20.273438 2.625 20.273438 4.027344 Z M 20.273438 19.972656 "/>
<path style=" stroke:none;fill-rule:nonzero;fill:rgb(0%,0%,0%);fill-opacity:1;" d="M 9.140625 11.382812 L 9.140625 15.433594 C 8.871094 15.335938 8.550781 15.304688 8.222656 15.371094 C 7.429688 15.523438 6.886719 16.148438 7.003906 16.765625 C 7.125 17.382812 7.863281 17.757812 8.652344 17.605469 C 9.355469 17.46875 9.863281 16.964844 9.882812 16.417969 L 9.886719 16.417969 L 9.886719 12.375 L 14.488281 11.871094 L 14.488281 14.765625 C 14.21875 14.667969 13.898438 14.636719 13.566406 14.703125 C 12.777344 14.851562 12.230469 15.476562 12.351562 16.09375 C 12.46875 16.710938 13.207031 17.089844 14 16.9375 C 14.699219 16.800781 15.207031 16.292969 15.230469 15.75 L 15.234375 15.75 L 15.234375 9.285156 L 9.140625 9.988281 Z M 9.886719 11.332031 L 14.488281 10.761719 L 14.488281 11.441406 L 9.886719 11.945312 Z M 9.886719 11.332031 "/>
</g>
</svg>
