<?xml version="1.0" encoding="UTF-8"?>
<svg xmlns="http://www.w3.org/2000/svg" xmlns:xlink="http://www.w3.org/1999/xlink" width="24px" height="24px" viewBox="0 0 24 24" version="1.1">
<g id="surface1">
<path style=" stroke:none;fill-rule:nonzero;fill:rgb(7.843137%,6.666667%,14.117647%);fill-opacity:1;" d="M 7.371094 18.824219 C 6.796875 18.367188 6.289062 17.832031 5.863281 17.234375 L 5 17.234375 C 3.480469 17.230469 2.25 16 2.25 14.480469 L 2.25 9.519531 C 2.253906 8 3.484375 6.769531 5 6.769531 L 5.851562 6.769531 C 6.253906 6.171875 6.742188 5.636719 7.304688 5.179688 C 8.910156 3.878906 10.929688 3.191406 13 3.25 C 13.414062 3.25 13.75 3.585938 13.75 4 L 13.75 20 C 13.75 20.414062 13.414062 20.75 13 20.75 C 10.953125 20.789062 8.960938 20.109375 7.371094 18.824219 Z M 3.75 9.519531 L 3.75 14.484375 C 3.75 15.171875 4.3125 15.734375 5 15.734375 L 6.277344 15.734375 C 6.550781 15.734375 6.804688 15.882812 6.9375 16.121094 C 7.03125 16.277344 7.136719 16.429688 7.25 16.570312 C 7.5625 16.972656 7.921875 17.339844 8.320312 17.660156 C 9.441406 18.566406 10.8125 19.109375 12.25 19.21875 L 12.25 4.777344 C 10.789062 4.867188 9.394531 5.414062 8.257812 6.335938 C 7.875 6.652344 7.53125 7.015625 7.234375 7.414062 C 7.128906 7.550781 7.035156 7.699219 6.949219 7.851562 C 6.824219 8.105469 6.5625 8.261719 6.28125 8.261719 L 5 8.261719 C 4.308594 8.265625 3.75 8.828125 3.75 9.519531 Z M 17.25 20.308594 C 16.957031 20.015625 16.957031 19.542969 17.25 19.25 C 21.257812 15.246094 21.257812 8.753906 17.25 4.75 C 17.039062 4.566406 16.949219 4.28125 17.015625 4.007812 C 17.085938 3.738281 17.296875 3.523438 17.566406 3.457031 C 17.839844 3.390625 18.125 3.480469 18.308594 3.691406 C 22.898438 8.28125 22.898438 15.71875 18.308594 20.308594 C 18.015625 20.601562 17.542969 20.601562 17.246094 20.308594 Z M 15.421875 17.480469 C 15.28125 17.339844 15.199219 17.148438 15.199219 16.949219 C 15.199219 16.75 15.28125 16.558594 15.421875 16.421875 C 17.859375 13.980469 17.859375 10.023438 15.421875 7.582031 C 15.226562 7.394531 15.148438 7.113281 15.214844 6.851562 C 15.285156 6.589844 15.488281 6.382812 15.75 6.316406 C 16.011719 6.246094 16.292969 6.324219 16.480469 6.519531 C 19.507812 9.546875 19.507812 14.453125 16.480469 17.480469 C 16.339844 17.621094 16.148438 17.699219 15.949219 17.699219 C 15.75 17.699219 15.558594 17.621094 15.421875 17.480469 Z M 15.421875 17.480469 "/>
</g>
</svg>
