<?xml version="1.0" encoding="UTF-8"?>
<svg xmlns="http://www.w3.org/2000/svg" xmlns:xlink="http://www.w3.org/1999/xlink" width="24px" height="24px" viewBox="0 0 24 24" version="1.1">
<g id="surface1">
<path style=" stroke:none;fill-rule:nonzero;fill:rgb(7.843137%,6.666667%,14.117647%);fill-opacity:1;" d="M 6 20.75 C 4.425781 20.695312 3.195312 19.375 3.25 17.800781 L 3.25 8 C 3.25 7.585938 3.585938 7.25 4 7.25 C 4.414062 7.25 4.75 7.585938 4.75 8 L 4.75 17.800781 C 4.699219 18.542969 5.257812 19.191406 6 19.25 L 18 19.25 C 18.742188 19.191406 19.300781 18.542969 19.25 17.800781 L 19.25 8 C 19.25 7.585938 19.585938 7.25 20 7.25 C 20.414062 7.25 20.75 7.585938 20.75 8 L 20.75 17.800781 C 20.804688 19.375 19.574219 20.695312 18 20.75 Z M 11.25 15 L 11.25 5.8125 L 8.53125 8.53125 C 8.234375 8.804688 7.773438 8.796875 7.488281 8.511719 C 7.203125 8.226562 7.195312 7.765625 7.46875 7.46875 L 11.46875 3.46875 C 11.761719 3.175781 12.238281 3.175781 12.53125 3.46875 L 16.53125 7.46875 C 16.8125 7.765625 16.808594 8.230469 16.519531 8.519531 C 16.230469 8.808594 15.761719 8.8125 15.46875 8.53125 L 12.75 5.8125 L 12.75 15 C 12.75 15.414062 12.414062 15.75 12 15.75 C 11.585938 15.75 11.25 15.414062 11.25 15 Z M 11.25 15 "/>
</g>
</svg>
