<svg width="48" height="48" viewBox="0 0 48 48" fill="none" xmlns="http://www.w3.org/2000/svg">
<circle cx="24" cy="24" r="24" fill="#344966"/>
<path d="M14.25 34.2917L14.4571 32.96C14.6657 31.6192 15.5391 30.4721 16.8331 30.0632C18.5569 29.5185 21.1884 28.875 24 28.875C26.8116 28.875 29.4431 29.5185 31.1669 30.0632C32.4609 30.4721 33.3343 31.6192 33.5429 32.96L33.75 34.2917" stroke="#F0F4EF" stroke-width="2" stroke-linecap="round" stroke-linejoin="round"/>
<path d="M24 24.0003C26.9915 24.0003 29.4166 21.5752 29.4166 18.5837C29.4166 15.5921 26.9915 13.167 24 13.167C21.0084 13.167 18.5833 15.5921 18.5833 18.5837C18.5833 21.5752 21.0084 24.0003 24 24.0003Z" stroke="#F0F4EF" stroke-width="2" stroke-linecap="round" stroke-linejoin="round"/>
</svg>
